<svg width="24" height="24" viewBox="0 0 24 24" fill="none" xmlns="http://www.w3.org/2000/svg">
<path d="M23.5214 11.0758C21.9777 10.5215 21.0282 8.95044 21.1475 7.70989C21.1475 7.50594 21.0253 7.31643 20.8708 7.18255C20.7163 7.04933 20.4766 6.99168 20.2761 7.02393C17.9236 7.36907 15.7695 5.64805 15.5561 3.22883C15.5369 3.01049 15.4174 2.81408 15.232 2.69666C15.0473 2.57994 14.8173 2.55453 14.6134 2.63075C12.7065 3.32905 10.9048 2.06643 10.1859 0.421206C10.0513 0.113566 9.71761 -0.056028 9.38869 0.0167689C3.97589 1.2246 0 6.45266 0 12.0001C0 18.5912 5.40891 24.0001 12 24.0001C18.5911 24.0001 24 18.5912 24 12.0001C23.9805 11.5813 23.9775 11.2393 23.5214 11.0758ZM4.93359 12.7561C4.54528 12.7561 4.23047 12.4413 4.23047 12.053C4.23047 11.6646 4.54528 11.3499 4.93359 11.3499C5.32191 11.3499 5.63672 11.6646 5.63672 12.053C5.63672 12.4413 5.32186 12.7561 4.93359 12.7561ZM7.78125 18.3282C6.61809 18.3282 5.67188 17.382 5.67188 16.2188C5.67188 15.0557 6.61809 14.1095 7.78125 14.1095C8.94441 14.1095 9.89063 15.0557 9.89063 16.2188C9.89063 17.382 8.94445 18.3282 7.78125 18.3282ZM8.48438 9.89071C7.70916 9.89071 7.07813 9.25968 7.07813 8.48446C7.07813 7.70924 7.70916 7.07821 8.48438 7.07821C9.25959 7.07821 9.89063 7.70924 9.89063 8.48446C9.89063 9.25968 9.25959 9.89071 8.48438 9.89071ZM14.1094 19.7345C13.3342 19.7345 12.7031 19.1034 12.7031 18.3282C12.7031 17.553 13.3342 16.922 14.1094 16.922C14.8846 16.922 15.5156 17.553 15.5156 18.3282C15.5156 19.1034 14.8846 19.7345 14.1094 19.7345ZM14.8125 14.1095C13.6493 14.1095 12.7031 13.1632 12.7031 12.0001C12.7031 10.8369 13.6493 9.89071 14.8125 9.89071C15.9757 9.89071 16.9219 10.8369 16.9219 12.0001C16.9219 13.1632 15.9757 14.1095 14.8125 14.1095ZM18.9961 15.5686C18.6078 15.5686 18.293 15.2538 18.293 14.8655C18.293 14.4771 18.6078 14.1624 18.9961 14.1624C19.3844 14.1624 19.6992 14.4771 19.6992 14.8655C19.6992 15.2538 19.3844 15.5686 18.9961 15.5686Z" fill="white"/>
</svg>
