<svg width="32" height="32" viewBox="0 0 32 32" fill="none" xmlns="http://www.w3.org/2000/svg">
<path fill-rule="evenodd" clip-rule="evenodd" d="M5.02565 0C2.25006 0 0 2.25006 0 5.02565V26.9743C0 29.7499 2.25006 32 5.02565 32H26.9743C29.7499 32 32 29.7499 32 26.9743V5.02565C32 2.25006 29.7499 0 26.9743 0H5.02565ZM21.4136 13.8406C21.471 13.8734 21.5185 13.9205 21.5513 13.9772C21.584 14.0339 21.6009 14.0981 21.6001 14.1633C21.5993 14.2284 21.5809 14.2922 21.5468 14.3481L15.6634 24.6279C15.6183 24.6978 15.5506 24.7508 15.4712 24.7786C15.3918 24.8063 15.3053 24.8073 15.2253 24.7812C15.1453 24.7551 15.0765 24.7036 15.0298 24.6348C14.9831 24.5659 14.9612 24.4837 14.9677 24.4013L15.6212 18.2107H10.7756C10.7088 18.2107 10.6432 18.1932 10.5856 18.1601C10.528 18.1269 10.4804 18.0793 10.4478 18.0221C10.4152 17.9649 10.3988 17.9002 10.4002 17.8347C10.4016 17.7692 10.4207 17.7053 10.4557 17.6495L16.438 7.36851C16.4842 7.29879 16.553 7.24636 16.6333 7.21968C16.7137 7.19299 16.8008 7.19359 16.8807 7.22139C16.9606 7.24918 17.0287 7.30255 17.0739 7.37291C17.1192 7.44326 17.139 7.5265 17.1301 7.60923L16.3054 13.7905H21.2246C21.291 13.7905 21.3562 13.8078 21.4136 13.8406Z" fill="#FF0000"/>
</svg>
