<svg width="19" height="13" viewBox="0 0 19 13" fill="none" xmlns="http://www.w3.org/2000/svg">
<path d="M4.85417 10.0028C8.78543 11.537 12.1309 11.8359 15.9221 9.44784C15.8943 9.48952 15.1444 10.6005 13.1723 11.1699C13.5889 11.7393 14.1583 12.3921 14.1583 12.3921C15.4221 12.3921 16.6582 12.031 17.7275 11.3366C18.5608 10.781 19.0329 9.82279 18.9357 8.82288C18.7691 7.11465 18.3663 5.44811 17.7414 3.85103C16.9498 1.76786 15.0471 0.323503 12.839 0.11517C12.6445 0.101275 12.5057 0.101275 12.4223 0.101275L12.2002 0.323462C14.7416 1.04564 16.0054 2.17055 16.0332 2.21224C12.1307 0.240136 7.51992 0.212389 3.58962 2.12891C3.58962 2.12891 4.83954 0.892885 7.60321 0.240137L7.43656 0.0734863C7.1449 0.0734863 6.86713 0.101275 6.57551 0.142917C4.53398 0.490112 2.8258 1.89279 2.08972 3.8232C1.45087 5.48975 1.03424 7.23962 0.881486 9.01728C0.798161 9.96165 1.24258 10.8922 2.02029 11.4338C3.04798 12.1143 4.27011 12.4754 5.50614 12.4754C5.50614 12.4754 6.00609 11.8226 6.50608 11.2394C4.6312 10.6838 3.86738 9.57281 3.85349 9.53113L4.20633 9.7113C4.41726 9.81907 4.63351 9.91671 4.85417 10.0028ZM7.03382 8.79509C6.1311 8.7673 5.42281 8.00348 5.4506 7.08687C5.47839 6.22582 6.17278 5.53143 7.03382 5.50364C7.93655 5.53143 8.64483 6.29525 8.61704 7.21187C8.57536 8.07296 7.89486 8.76735 7.03382 8.79509ZM12.7001 8.79509C11.7973 8.7673 11.0891 8.00348 11.1168 7.08687C11.1446 6.22582 11.839 5.53143 12.7001 5.50364C13.6028 5.53143 14.3111 6.29525 14.2833 7.21187C14.2555 8.07296 13.5611 8.76735 12.7001 8.79509Z" fill="white"/>
</svg>
