<svg width="215" height="215" viewBox="0 0 215 215" fill="none" xmlns="http://www.w3.org/2000/svg">
<path d="M208.703 15.5175H181.112C181.212 12.4616 181.268 9.38762 181.268 6.29888C181.268 2.81973 178.447 0 174.969 0H40.0323C36.5548 0 33.7334 2.81973 33.7334 6.29888C33.7334 9.38762 33.7892 12.4616 33.8893 15.5175H6.29888C2.81973 15.5175 0 18.3373 0 21.8164C0 50.04 7.37657 76.6675 20.7699 96.796C34.009 116.695 51.6442 128.108 70.695 129.219C75.014 133.918 79.5791 137.75 84.3344 140.673V168.669H73.7674C60.9925 168.669 50.601 179.062 50.601 191.835V202.402H50.1532C46.674 202.402 43.8543 205.224 43.8543 208.701C43.8543 212.18 46.674 215 50.1532 215H164.848C168.328 215 171.147 212.18 171.147 208.701C171.147 205.224 168.328 202.402 164.848 202.402H164.401V191.835C164.401 179.062 154.009 168.669 141.234 168.669H130.667V140.673C135.423 137.752 139.989 133.918 144.308 129.219C163.357 128.108 180.993 116.695 194.233 96.796C207.627 76.6675 215.002 50.04 215.002 21.8164C215.002 18.3373 212.182 15.5175 208.703 15.5175ZM31.2582 89.818C20.2105 73.2162 13.7197 51.5015 12.7306 28.1153H34.593C36.8648 56.8638 43.6132 83.4371 54.1605 104.53C55.8402 107.89 57.597 111.064 59.4194 114.052C48.9426 110.096 39.2466 101.825 31.2582 89.818ZM151.803 191.835V202.404H63.1987V191.835C63.1987 186.009 67.9393 181.267 73.7674 181.267H141.234C147.062 181.267 151.803 186.009 151.803 191.835ZM118.069 168.669H96.9322V146.147C100.395 147.059 103.923 147.533 107.501 147.533C111.078 147.533 114.607 147.059 118.069 146.147V168.669ZM121.97 131.161C121.686 131.277 121.414 131.419 121.153 131.574C116.701 133.789 112.127 134.935 107.501 134.935C102.877 134.935 98.3035 133.789 93.8532 131.578C93.5892 131.419 93.3152 131.277 93.0282 131.158C88.0891 128.546 83.3108 124.603 78.7917 119.421C78.5539 119.082 78.2865 118.768 77.9896 118.483C73.5033 113.157 69.2827 106.605 65.4279 98.8956C53.8521 75.7456 47.1661 45.306 46.405 12.5978H168.597C167.834 45.306 161.148 75.7473 149.574 98.8956C145.719 106.605 141.498 113.157 137.014 118.483C136.715 118.768 136.444 119.083 136.208 119.423C131.689 124.606 126.909 128.548 121.97 131.161ZM183.743 89.818C175.755 101.825 166.059 110.096 155.582 114.052C157.405 111.064 159.161 107.89 160.841 104.53C171.388 83.4371 178.135 56.8638 180.409 28.1153H202.271C201.282 51.5015 194.791 73.2162 183.743 89.818Z" fill="white"/>
</svg>
