<svg width="24" height="24" viewBox="0 0 24 24" fill="none" xmlns="http://www.w3.org/2000/svg">
<path d="M20.0603 6.46155C20.825 6.46155 21.4449 5.84164 21.4449 5.07694C21.4449 4.31224 20.825 3.69232 20.0603 3.69232C19.2956 3.69232 18.6757 4.31224 18.6757 5.07694C18.6757 5.84164 19.2956 6.46155 20.0603 6.46155Z" fill="white"/>
<path d="M16.3676 3.69233C17.1323 3.69233 17.7523 3.07241 17.7523 2.30771C17.7523 1.54301 17.1323 0.923096 16.3676 0.923096C15.6029 0.923096 14.983 1.54301 14.983 2.30771C14.983 3.07241 15.6029 3.69233 16.3676 3.69233Z" fill="white"/>
<path d="M12.6758 2.76923C13.4405 2.76923 14.0604 2.14932 14.0604 1.38462C14.0604 0.619913 13.4405 0 12.6758 0C11.9111 0 11.2912 0.619913 11.2912 1.38462C11.2912 2.14932 11.9111 2.76923 12.6758 2.76923Z" fill="white"/>
<path d="M8.98361 4.61536C9.74832 4.61536 10.3682 3.99545 10.3682 3.23075C10.3682 2.46604 9.74832 1.84613 8.98361 1.84613C8.21891 1.84613 7.599 2.46604 7.599 3.23075C7.599 3.99545 8.21891 4.61536 8.98361 4.61536Z" fill="white"/>
<path d="M18.6757 5.07689V11.0769C18.6757 11.3317 18.4689 11.5384 18.2142 11.5384C17.9594 11.5384 17.7526 11.3317 17.7526 11.0769V2.30766H14.9834V10.1538C14.9834 10.4086 14.7766 10.6154 14.5219 10.6154C14.2671 10.6154 14.0603 10.4086 14.0603 10.1538V1.38458H11.2911V10.1538C11.2911 10.4086 11.0843 10.6154 10.8296 10.6154C10.5748 10.6154 10.368 10.4086 10.368 10.1538V3.23074H7.59879V14.7692L5.72955 12.2114C5.17571 11.3575 4.09479 11.0714 3.30279 11.5606C2.51355 12.0609 2.31786 13.152 2.86432 14.003C2.86432 14.003 5.87909 18.5658 7.16402 20.519C8.44894 22.4723 10.5305 24 14.4231 24C20.868 24 21.4449 19.0227 21.4449 17.5384C21.4449 16.0541 21.4449 5.07689 21.4449 5.07689H18.6757Z" fill="white"/>
</svg>
