<svg width="29" height="20" viewBox="0 0 29 20" fill="none" xmlns="http://www.w3.org/2000/svg">
<path d="M6.1944 15.4436C12.3088 17.8298 17.5123 18.2946 23.4088 14.5804C23.3656 14.6452 22.1992 16.3732 19.1319 17.2588C19.7799 18.1444 20.6655 19.1596 20.6655 19.1596C22.6312 19.1596 24.5537 18.598 26.2168 17.518C27.5129 16.6539 28.2473 15.1635 28.0961 13.6083C27.8369 10.9514 27.2104 8.35939 26.2384 5.87539C25.0072 2.63534 22.048 0.388863 18.6135 0.0648319C18.3111 0.0432213 18.0951 0.0432214 17.9655 0.0432214L17.6199 0.388799C21.5728 1.51204 23.5385 3.26166 23.5816 3.32649C17.5119 0.259198 10.3406 0.216042 4.22758 3.19689C4.22758 3.19689 6.17163 1.27445 10.4701 0.259199L10.2109 0C9.75726 0 9.32524 0.0432211 8.87167 0.107989C5.69639 0.647997 3.03957 2.82964 1.89472 5.8321C0.901085 8.42416 0.253087 11.1458 0.015499 13.9107C-0.1141 15.3795 0.577118 16.8268 1.78673 17.6692C3.38515 18.7276 5.28598 19.2892 7.20843 19.2892C7.20843 19.2892 7.98602 18.274 8.76369 17.3668C5.8476 16.5027 4.6596 14.7747 4.63799 14.7099L5.18678 14.9901C5.51485 15.1578 5.85119 15.3096 6.1944 15.4436ZM9.5845 13.5651C8.18046 13.5219 7.07883 12.3339 7.12205 10.9082C7.16527 9.56901 8.24529 8.48899 9.5845 8.44577C10.9886 8.48899 12.0902 9.67699 12.047 11.1027C11.9821 12.4419 10.9237 13.5219 9.5845 13.5651ZM18.3975 13.5651C16.9934 13.5219 15.8918 12.3339 15.935 10.9082C15.9782 9.56901 17.0582 8.48899 18.3975 8.44577C19.8015 8.48899 20.9031 9.67699 20.8599 11.1027C20.8168 12.4419 19.7367 13.5219 18.3975 13.5651Z" fill="#FF0000"/>
</svg>
