<svg width="47" height="47" viewBox="0 0 47 47" fill="none" xmlns="http://www.w3.org/2000/svg">
<path fill-rule="evenodd" clip-rule="evenodd" d="M7.38143 0C3.30478 0 0 3.30478 0 7.38143V39.6186C0 43.6952 3.30478 47 7.38143 47H39.6186C43.6952 47 47 43.6952 47 39.6186V7.38143C47 3.30478 43.6952 0 39.6186 0H7.38143ZM31.4512 20.3284C31.5355 20.3765 31.6053 20.4458 31.6534 20.5291C31.7015 20.6123 31.7262 20.7066 31.725 20.8023C31.7239 20.898 31.6969 20.9916 31.6468 21.0737L23.0055 36.1723C22.9392 36.2748 22.8399 36.3527 22.7233 36.3935C22.6067 36.4343 22.4795 36.4357 22.362 36.3974C22.2446 36.3591 22.1435 36.2834 22.0749 36.1823C22.0064 36.0812 21.9742 35.9605 21.9837 35.8394L22.9436 26.747H15.8265C15.7284 26.747 15.6321 26.7213 15.5475 26.6726C15.4629 26.6239 15.3931 26.554 15.3452 26.47C15.2973 26.386 15.2732 26.291 15.2752 26.1948C15.2772 26.0986 15.3054 26.0046 15.3568 25.9226L24.1432 10.8225C24.2111 10.7201 24.3122 10.6431 24.4302 10.6039C24.5481 10.5647 24.6761 10.5656 24.7935 10.6064C24.9109 10.6472 25.0108 10.7256 25.0773 10.829C25.1437 10.9323 25.1728 11.0545 25.1598 11.1761L23.9485 20.2548H31.1735C31.2711 20.2548 31.3669 20.2802 31.4512 20.3284Z" fill="#FF0000"/>
</svg>
